<svg xmlns="http://www.w3.org/2000/svg" class="css-ze2te4 css-qd6ojx" viewBox="0 0 53.10124077169069 54.9855650032668"><g transform="translate(-8.53250811861308, -7.621269387499062) scale(0.08283988464672894)" class="css-1mun45u" fill="#111111"><defs xmlns="http://www.w3.org/2000/svg"/><g xmlns="http://www.w3.org/2000/svg"><path class="fil0" d="M238 509l-91 -112c-42,113 -44,182 -44,182l50 -58c81,418 757,209 496,-94 -36,-43 -81,-40 -81,-40 67,-17 65,-67 65,-67 -218,0 -322,42 -322,42l10 67 34 8 -24 28c200,3 263,116 201,188 -114,132 -358,2 -350,-160l56 16zm254 -155c-37,52 -73,14 -73,14l73 -14z" style="fill: {{COLOR}};"/><path class="fil0" d="M216 377c146,-65 295,-73 451,-75 0,0 6,55 -42,79 0,0 103,58 100,225 0,0 141,-443 -345,-419 0,0 58,-10 39,-95 0,0 -207,127 -275,207l47 54 29 -10 -4 34zm79 -170c0,0 13,47 -49,40l49 -40z" style="fill: {{COLOR}};"/></g></g></svg>