<svg xmlns="http://www.w3.org/2000/svg" viewBox="0 0 407.97179852931504 54.9855650032668" preserveAspectRatio="xMidYMid meet" class="css-88gl6m" id="abfgghce"><defs id="SvgjsDefs1013"/><g id="SvgjsG1014" featurekey="nameLeftFeature-0" transform="matrix(2.1451921463012695,0,0,2.1451921463012695,-3.2177877544088487,-0.3563064090002577)" fill="#fff"><path d="M12.64 20 l-2.68 0 l0 -6.9 l-5.78 0 l0 6.9 l-2.68 0 l0 -14.24 l2.68 0 l0 4.72 l5.78 0 l0 -4.72 l2.68 0 l0 14.24 z M22.1 20 l-2.7 0 l0 -7.04 l-5.14 -7.2 l3.28 0 l3.22 4.5 l3.22 -4.5 l3.26 0 l-5.14 7.2 l0 7.04 z M33.64 20 l-4.78 0 l0 -14.24 l4.78 0 c4.02 0 7.3 3.2 7.3 7.12 s-3.28 7.12 -7.3 7.12 z M31.520000000000003 17.38 l2.12 0 c2.56 0 4.64 -2.02 4.64 -4.5 s-2.08 -4.5 -4.64 -4.5 l-2.12 0 l0 9 z M54.88 20 l-3.16 0 l-5.06 -6.96 l-1.14 0 l0 6.96 l-2.6 0 l0 -14.24 l5.1 0 c0.96 0 1.86 0.38 2.56 1.08 s1.08 1.6 1.08 2.56 c0 1.42 -0.84 2.7 -2.08 3.3 z M45.52 10.44 l2.5 0 c0.56 0 1.04 -0.46 1.04 -1.04 s-0.48 -1.04 -1.04 -1.04 l-2.5 0 l0 2.08 z M68.64 20 l-2.88 0 l-1.46 -3.84 l-4.72 0 l-1.48 3.84 l-2.86 0 l5.48 -14.24 l2.42 0 z M60.620000000000005 13.52 l2.64 0 l-1.32 -3.46 z"/></g><g id="SvgjsG1015" featurekey="inlineSymbolFeature-0" transform="matrix(0.08283988386392593,0,0,0.08283988386392593,155.46749188138693,-7.621269387499062)" fill="#fff"><defs xmlns="http://www.w3.org/2000/svg"/><g xmlns="http://www.w3.org/2000/svg"><path class="fil0" d="M238 509l-91 -112c-42,113 -44,182 -44,182l50 -58c81,418 757,209 496,-94 -36,-43 -81,-40 -81,-40 67,-17 65,-67 65,-67 -218,0 -322,42 -322,42l10 67 34 8 -24 28c200,3 263,116 201,188 -114,132 -358,2 -350,-160l56 16zm254 -155c-37,52 -73,14 -73,14l73 -14z" style="fill: #fff;"/><path class="fil0" d="M216 377c146,-65 295,-73 451,-75 0,0 6,55 -42,79 0,0 103,58 100,225 0,0 141,-443 -345,-419 0,0 58,-10 39,-95 0,0 -207,127 -275,207l47 54 29 -10 -4 34zm79 -170c0,0 13,47 -49,40l49 -40z" style="fill: #fff;"/></g></g><g id="SvgjsG1016" featurekey="nameRightFeature-0" transform="matrix(2.1451921463012695,0,0,2.1451921463012695,223.69980775518383,-0.35630455857251775)" fill="#fff"><path d="M18.94 20 l-2.66 0 l0 -9.52 l-3.72 5.08 l-3.7 -5.08 l0 9.52 l-2.66 0 l0 -14.24 l2.5 0 l3.86 5.3 l3.86 -5.3 l2.52 0 l0 14.24 z M34.540000000000006 20 l-2.88 0 l-1.46 -3.84 l-4.72 0 l-1.48 3.84 l-2.86 0 l5.48 -14.24 l2.42 0 z M26.520000000000003 13.52 l2.64 0 l-1.32 -3.46 z M48.2 20 l-3.16 0 l-5.06 -6.96 l-1.14 0 l0 6.96 l-2.6 0 l0 -14.24 l5.1 0 c0.96 0 1.86 0.38 2.56 1.08 s1.08 1.6 1.08 2.56 c0 1.42 -0.84 2.7 -2.08 3.3 z M38.84 10.44 l2.5 0 c0.56 0 1.04 -0.46 1.04 -1.04 s-0.48 -1.04 -1.04 -1.04 l-2.5 0 l0 2.08 z M63.06 20 l-3.34 0 l-5.3 -7.44 l-2.28 2.16 l0 5.28 l-2.66 0 l0 -14.24 l2.66 0 l0 5.34 l5.68 -5.34 l3.84 0 l-5.22 4.94 z M74.26 20 l-9.2 0 l0 -14.24 l9.38 0 l0 2.6 l-6.7 0 l0 2.1 l5.84 0 l0 2.66 l-5.84 0 l0 4.24 l6.52 0 l0 2.64 z M82.4 20 l-2.68 0 l0 -11.6 l-3.5 0 l0 -2.64 l9.68 0 l0 2.64 l-3.5 0 l0 11.6 z"/></g></svg>